<?xml version="1.0" encoding="iso-8859-1"?>
<!-- Generator: Adobe Illustrator 18.0.0, SVG Export Plug-In . SVG Version: 6.00 Build 0)  -->
<!DOCTYPE svg PUBLIC "-//W3C//DTD SVG 1.1//EN" "http://www.w3.org/Graphics/SVG/1.1/DTD/svg11.dtd">
<svg xmlns="http://www.w3.org/2000/svg" xmlns:xlink="http://www.w3.org/1999/xlink" version="1.1" id="Capa_1" x="0px" y="0px" viewBox="0 0 392.62 392.62" style="enable-background:new 0 0 392.62 392.62;" xml:space="preserve" width="512px" height="512px">
<g>
	<path d="M196.804,148.547h-0.993c-26.154,0-47.432,21.277-47.432,47.432v0.655c0,26.154,21.278,47.432,47.432,47.432h0.993   c26.154,0,47.431-21.277,47.431-47.432v-0.655C244.235,169.824,222.958,148.547,196.804,148.547z M214.235,196.634   c0,9.612-7.819,17.432-17.431,17.432h-0.993c-9.612,0-17.432-7.819-17.432-17.432v-0.655c0-9.611,7.82-17.432,17.432-17.432h0.993   c9.612,0,17.431,7.82,17.431,17.432V196.634z" fill="#999eab"/>
	<path d="M324.943,181.841l6.253-5.799l-1.784-8.339c-3.457-16.154-9.771-31.39-18.765-45.282l-4.634-7.155l-8.519,0.318   c-5.39,0.2-10.541-1.816-14.348-5.622l-0.489-0.489c-3.828-3.828-5.824-8.924-5.622-14.348l0.318-8.519l-7.155-4.634   c-13.893-8.994-29.128-15.308-45.282-18.765l-8.339-1.784l-5.799,6.253c-3.691,3.98-8.707,6.173-14.123,6.173h-0.692   c-5.416,0-10.432-2.192-14.124-6.174l-5.799-6.252l-8.338,1.784c-16.154,3.457-31.389,9.771-45.281,18.765l-7.155,4.633   l0.318,8.519c0.203,5.425-1.793,10.521-5.622,14.349l-0.489,0.489c-3.806,3.806-8.952,5.814-14.348,5.622l-8.519-0.318   l-4.633,7.155c-8.995,13.893-15.308,29.128-18.765,45.282l-1.784,8.338l6.252,5.799c3.981,3.692,6.173,8.708,6.173,14.124v0.691   c0,5.416-2.192,10.432-6.173,14.124l-6.252,5.799l1.784,8.338c3.457,16.154,9.771,31.39,18.765,45.282l4.633,7.155l8.519-0.318   c5.396-0.182,10.542,1.817,14.348,5.622l0.489,0.489c3.828,3.828,5.825,8.924,5.622,14.348l-0.318,8.519l7.156,4.634   c13.893,8.994,29.127,15.308,45.281,18.765l8.338,1.784l5.799-6.252c3.692-3.981,8.708-6.174,14.124-6.174h0.692   c5.416,0,10.431,2.192,14.123,6.173l5.799,6.253l8.339-1.784c16.154-3.457,31.39-9.771,45.282-18.765l7.155-4.634l-0.318-8.519   c-0.202-5.424,1.794-10.52,5.622-14.348l0.489-0.489c3.807-3.806,8.949-5.822,14.348-5.622l8.519,0.318l4.634-7.155   c8.994-13.893,15.308-29.128,18.765-45.282l1.784-8.339l-6.253-5.799c-3.98-3.691-6.173-8.707-6.173-14.123v-0.691   C318.77,190.548,320.962,185.532,324.943,181.841z M298.295,225.75c-2.187,7.602-5.214,14.907-9.051,21.838   c-10.304,1.568-19.807,6.352-27.311,13.856l-0.489,0.489c-7.423,7.423-12.239,17.042-13.836,27.3   c-6.938,3.842-14.249,6.873-21.858,9.062c-8.384-6.127-18.594-9.525-29.094-9.525h-0.692c-10.5,0-20.709,3.398-29.094,9.525   c-7.609-2.188-14.921-5.22-21.858-9.062c-1.598-10.258-6.414-19.878-13.836-27.3l-0.489-0.489   c-7.504-7.505-17.007-12.288-27.311-13.856c-3.836-6.931-6.864-14.236-9.05-21.838c6.126-8.384,9.525-18.595,9.525-29.095v-0.691   c0-10.5-3.399-20.711-9.525-29.095c2.186-7.602,5.214-14.907,9.05-21.838c10.304-1.568,19.807-6.353,27.311-13.856l0.489-0.488   c7.423-7.423,12.239-17.042,13.836-27.301c6.937-3.842,14.249-6.873,21.858-9.062c8.385,6.127,18.594,9.525,29.094,9.525h0.692   c10.5,0,20.71-3.398,29.094-9.525c7.609,2.188,14.921,5.22,21.858,9.062c1.597,10.258,6.413,19.877,13.836,27.3l0.489,0.489   c7.504,7.505,17.007,12.288,27.311,13.856c3.837,6.931,6.864,14.236,9.051,21.838c-6.127,8.384-9.525,18.594-9.525,29.095v0.691   C288.77,207.156,292.168,217.366,298.295,225.75z" fill="#999eab"/>
	<path d="M310.724,0.929H81.896C36.738,0.929,0,37.667,0,82.825v226.97c0,45.157,36.738,81.896,81.896,81.896h228.828   c45.157,0,81.896-36.738,81.896-81.896V82.825C392.62,37.667,355.881,0.929,310.724,0.929z M362.62,309.795   c0,28.615-23.28,51.896-51.896,51.896H81.896C53.28,361.691,30,338.41,30,309.795V82.825c0-28.616,23.28-51.896,51.896-51.896   h228.828c28.615,0,51.896,23.28,51.896,51.896V309.795z" fill="#999eab"/>
</g>
<g>
</g>
<g>
</g>
<g>
</g>
<g>
</g>
<g>
</g>
<g>
</g>
<g>
</g>
<g>
</g>
<g>
</g>
<g>
</g>
<g>
</g>
<g>
</g>
<g>
</g>
<g>
</g>
<g>
</g>
</svg>
